<!-- icon666.com - MILLIONS vector ICONS FREE --><svg xmlns="http://www.w3.org/2000/svg" xmlns:xlink="http://www.w3.org/1999/xlink" version="1.1" id="Capa_1" x="0px" y="0px" viewBox="0 0 431.996 431.996" style="enable-background:new 0 0 431.996 431.996;" xml:space="preserve"><g><g id="Love_1_"><path d="M215.998,403.542c-2.088-0.002-4.135-0.583-5.912-1.68C185.83,386.846-26.01,251.006,2.662,104.71 c8.536-43.472,54.704-76.256,107.432-76.256c16.366-0.04,32.545,3.479,47.416,10.312c22.912,10.136,42.992,25.729,58.488,45.416 c15.565-19.762,35.745-35.399,58.768-45.536c14.79-6.766,30.872-10.243,47.136-10.192c52.728,0,98.912,32.8,107.432,76.256 c28.672,146.304-183.2,282.136-207.408,297.136C220.145,402.95,218.093,403.537,215.998,403.542L215.998,403.542z M110.094,44.454 c-45.216,0-84.656,27.2-91.728,63.328C-7.466,239.566,183.51,366.214,215.998,386.686c32.44-20.44,223.464-147.104,197.6-278.904 c-7.072-36.104-46.512-63.328-91.728-63.328c-14.065-0.035-27.97,2.987-40.752,8.856c-22.246,9.842-41.448,25.467-55.608,45.248 c-3.66,5.269-10.898,6.573-16.167,2.913c-1.137-0.79-2.123-1.776-2.913-2.913c-14.096-19.708-33.203-35.291-55.344-45.136 C138.235,47.493,124.247,44.433,110.094,44.454L110.094,44.454z" fill="#000000" style="fill: rgb(255, 255, 255);"></path></g></g></svg>