<svg width="155" height="22" viewBox="0 0 155 22" fill="none" xmlns="http://www.w3.org/2000/svg">
<path d="M0.4 2.8V2H5.2C9.37333 2 11.46 3.26667 11.46 5.8C11.46 7.56 10.4267 8.70667 8.36 9.24V9.38C10.8267 9.75333 12.06 10.7667 12.06 12.42C12.06 13.62 11.5133 14.52 10.42 15.12C9.32667 15.7067 7.78667 16 5.8 16H0.4V15.2H1.6V2.8H0.4ZM5.6 9.74H4.6V15.2H5.6C6.56 15.2 7.36 14.96 8 14.48C8.64 14 8.96 13.3333 8.96 12.48C8.96 11.6133 8.64 10.94 8 10.46C7.36 9.98 6.56 9.74 5.6 9.74ZM5.18 2.8H4.6V8.98H5.18C6.12667 8.98 6.90667 8.7 7.52 8.14C8.14667 7.58 8.46 6.81333 8.46 5.84C8.46 4.86667 8.14667 4.12 7.52 3.6C6.90667 3.06667 6.12667 2.8 5.18 2.8ZM15.9202 14.78C14.9468 13.7533 14.4602 12.4933 14.4602 11C14.4602 9.50667 14.9468 8.25333 15.9202 7.24C16.9068 6.21333 18.1868 5.7 19.7602 5.7C21.3335 5.7 22.6068 6.21333 23.5802 7.24C24.5668 8.25333 25.0602 9.50667 25.0602 11C25.0602 12.4933 24.5668 13.7533 23.5802 14.78C22.6068 15.7933 21.3335 16.3 19.7602 16.3C18.1868 16.3 16.9068 15.7933 15.9202 14.78ZM18.1202 7.8C17.7468 8.62667 17.5602 9.69333 17.5602 11C17.5602 12.3067 17.7468 13.38 18.1202 14.22C18.4935 15.0467 19.0468 15.46 19.7802 15.46C20.5135 15.46 21.0668 15.0467 21.4402 14.22C21.8135 13.38 22.0002 12.3067 22.0002 11C22.0002 9.69333 21.8135 8.62667 21.4402 7.8C21.0668 6.96 20.5135 6.54 19.7802 6.54C19.0468 6.54 18.4935 6.96 18.1202 7.8ZM38.3033 1.92V13.78C38.3033 14.14 38.3899 14.4267 38.5633 14.64C38.7366 14.84 38.9833 14.94 39.3033 14.94C39.6366 14.94 40.0366 14.7467 40.5033 14.36L40.9633 14.84C39.8966 15.8133 38.8299 16.3 37.7633 16.3C36.4966 16.3 35.7166 15.7067 35.4233 14.52C34.7299 15.7067 33.7099 16.3 32.3633 16.3C30.8299 16.3 29.6633 15.8067 28.8633 14.82C28.0633 13.82 27.6633 12.5533 27.6633 11.02C27.6633 9.47333 28.0899 8.2 28.9433 7.2C29.8099 6.2 31.0166 5.7 32.5633 5.7C33.7499 5.7 34.6633 6.17333 35.3033 7.12V1.66C34.5699 1.84667 34.0099 2.17333 33.6233 2.64L33.0833 2.02C33.4699 1.62 33.9566 1.3 34.5433 1.06C35.1433 0.819999 35.7299 0.699999 36.3033 0.699999C36.8899 0.699999 37.3699 0.819999 37.7433 1.06C38.1166 1.28667 38.3033 1.57333 38.3033 1.92ZM31.3233 7.96C30.9499 8.70667 30.7633 9.72 30.7633 11C30.7633 12.28 30.9499 13.2933 31.3233 14.04C31.6966 14.7867 32.2633 15.16 33.0233 15.16C33.7966 15.16 34.3833 14.7867 34.7833 14.04C35.1966 13.28 35.4033 12.2667 35.4033 11C35.4033 9.73333 35.1966 8.72667 34.7833 7.98C34.3833 7.22 33.7966 6.84 33.0233 6.84C32.2633 6.84 31.6966 7.21333 31.3233 7.96ZM40.8225 7.02C41.2092 6.62 41.6958 6.3 42.2825 6.06C42.8825 5.82 43.4692 5.7 44.0425 5.7C44.6292 5.7 45.1092 5.82 45.4825 6.06C45.8558 6.28667 46.0425 6.57333 46.0425 6.92V12.98C46.0425 13.4067 46.1758 13.7333 46.4425 13.96C46.7092 14.1733 47.0425 14.28 47.4425 14.28C48.2958 14.28 49.0225 13.9133 49.6225 13.18C50.2358 12.4467 50.5425 11.5067 50.5425 10.36C50.5425 9.72 50.4158 9.04667 50.1625 8.34C49.9225 8.5 49.6158 8.58 49.2425 8.58C48.8692 8.58 48.5292 8.43333 48.2225 8.14C47.9292 7.83333 47.7825 7.46667 47.7825 7.04C47.7825 6.61333 47.9292 6.25333 48.2225 5.96C48.5292 5.65333 48.9092 5.5 49.3625 5.5C49.8158 5.5 50.2025 5.67333 50.5225 6.02C50.8558 6.35333 51.0958 6.8 51.2425 7.36C51.4825 8.33333 51.6025 9.41333 51.6025 10.6C51.6025 11.7733 51.4625 12.9533 51.1825 14.14C50.9158 15.3267 50.5558 16.3467 50.1025 17.2C49.6625 18.0533 49.1625 18.7933 48.6025 19.42C47.4558 20.6733 46.2892 21.3 45.1025 21.3C44.7825 21.3 44.5158 21.2267 44.3025 21.08C44.1025 20.9467 43.8692 20.6933 43.6025 20.32L42.5625 18.88L43.0825 18.34C43.7225 18.4467 44.2825 18.5 44.7625 18.5C46.2558 18.5 47.4758 18.0267 48.4225 17.08C49.3692 16.1333 50.1158 14.5933 50.6625 12.46C49.8358 14.7533 48.3158 15.9 46.1025 15.9C45.2492 15.9 44.5225 15.6133 43.9225 15.04C43.3358 14.4533 43.0425 13.6267 43.0425 12.56V6.66C42.3092 6.84667 41.7492 7.17333 41.3625 7.64L40.8225 7.02ZM60.7416 2.64C59.5816 2.64 58.7016 3.24 58.1016 4.44C57.5016 5.62667 57.2016 7.11333 57.2016 8.9C57.2016 10.6867 57.5149 12.1467 58.1416 13.28C58.7816 14.4133 59.6949 14.98 60.8816 14.98C61.5482 14.98 62.1616 14.84 62.7216 14.56C63.2816 14.28 63.7016 13.9867 63.9816 13.68C64.2749 13.3733 64.5816 12.9867 64.9016 12.52L65.6016 13.02C64.9616 14.0467 64.2416 14.8533 63.4416 15.44C62.6549 16.0133 61.6416 16.3 60.4016 16.3C58.5482 16.3 57.0349 15.6 55.8616 14.2C54.6882 12.8 54.1016 11.06 54.1016 8.98C54.1016 6.9 54.6882 5.16667 55.8616 3.78C57.0349 2.39333 58.6616 1.7 60.7416 1.7C61.8216 1.7 62.8616 1.91333 63.8616 2.34C64.8616 2.76667 65.3616 3.27333 65.3616 3.86C65.3616 4.08667 65.2882 4.34667 65.1416 4.64L63.9416 6.96L63.2216 6.74L63.4016 5.5C63.4549 5.18 63.4816 4.87333 63.4816 4.58C63.4816 4.06 63.2282 3.60667 62.7216 3.22C62.2149 2.83333 61.5549 2.64 60.7416 2.64ZM78.0494 6V13.78C78.0494 14.14 78.136 14.4267 78.3094 14.64C78.4827 14.84 78.7494 14.94 79.1094 14.94C79.4694 14.94 79.8827 14.7467 80.3494 14.36L80.7094 14.84C79.6427 15.8133 78.576 16.3 77.5094 16.3C76.2427 16.3 75.4627 15.7067 75.1694 14.52C74.476 15.7067 73.456 16.3 72.1094 16.3C70.576 16.3 69.4094 15.8067 68.6094 14.82C67.8094 13.82 67.4094 12.5533 67.4094 11.02C67.4094 9.47333 67.836 8.2 68.6894 7.2C69.556 6.2 70.7627 5.7 72.3094 5.7C73.496 5.7 74.4094 6.17333 75.0494 7.12V6H78.0494ZM71.0694 7.96C70.696 8.70667 70.5094 9.72 70.5094 11C70.5094 12.28 70.696 13.2933 71.0694 14.04C71.4427 14.7867 72.0094 15.16 72.7694 15.16C73.5427 15.16 74.1294 14.7867 74.5294 14.04C74.9427 13.28 75.1494 12.2667 75.1494 11C75.1494 9.73333 74.9427 8.72667 74.5294 7.98C74.1294 7.22 73.5427 6.84 72.7694 6.84C72.0094 6.84 71.4427 7.21333 71.0694 7.96ZM88.1686 5.7C88.5686 5.7 88.7686 6.08 88.7686 6.84V13.78C88.7686 14.14 88.8553 14.4267 89.0286 14.64C89.2019 14.84 89.4686 14.94 89.8286 14.94C90.1886 14.94 90.6019 14.7467 91.0686 14.36L91.4286 14.84C90.3619 15.8133 89.2953 16.3 88.2286 16.3C86.5886 16.3 85.7686 15.32 85.7686 13.36V7.74C85.1419 7.99333 84.3819 8.16667 83.4886 8.26C83.3819 9.48667 83.0286 10.7133 82.4286 11.94L81.6086 11.7C81.9819 10.7533 82.1819 9.62667 82.2086 8.32C81.7019 8.32 81.2886 8.17333 80.9686 7.88C80.6619 7.58667 80.5086 7.22667 80.5086 6.8C80.5086 6.36 80.6553 5.99333 80.9486 5.7C81.2553 5.39333 81.6219 5.24 82.0486 5.24C82.4886 5.24 82.8553 5.39333 83.1486 5.7C83.4419 6.00667 83.5886 6.4 83.5886 6.88H83.9686C85.0219 6.88 86.1419 6.58667 87.3286 6C87.7153 5.8 87.9953 5.7 88.1686 5.7ZM96.5113 11.38C97.3779 11.3 98.0446 10.9733 98.5113 10.4C98.9913 9.81333 99.2313 9.22667 99.2313 8.64C99.2313 8.04 99.0979 7.58 98.8313 7.26C98.5779 6.94 98.1846 6.78 97.6513 6.78C97.1313 6.78 96.6313 7.15333 96.1513 7.9C95.6713 8.64667 95.4313 9.64667 95.4313 10.9C95.4313 12.1533 95.6579 13.16 96.1113 13.92C96.5646 14.68 97.2113 15.06 98.0513 15.06C99.3313 15.06 100.418 14.56 101.311 13.56L101.871 13.92C101.418 14.64 100.818 15.22 100.071 15.66C99.3246 16.0867 98.4846 16.3 97.5513 16.3C95.9646 16.3 94.6979 15.78 93.7513 14.74C92.8046 13.6867 92.3313 12.42 92.3313 10.94C92.3313 9.46 92.8313 8.22 93.8313 7.22C94.8446 6.20667 96.2446 5.7 98.0313 5.7C99.2046 5.7 100.125 5.97333 100.791 6.52C101.458 7.06667 101.791 7.76 101.791 8.6C101.791 9.44 101.418 10.22 100.671 10.94C99.9379 11.6467 98.9646 12 97.7513 12C97.3379 12 96.9379 11.9533 96.5513 11.86L96.5113 11.38ZM105.745 13.42C105.745 13.94 105.998 14.3933 106.505 14.78C107.012 15.1667 107.665 15.36 108.465 15.36C109.265 15.36 109.898 15.1667 110.365 14.78C110.832 14.3933 111.065 13.88 111.065 13.24C111.065 12.4267 110.578 11.7533 109.605 11.22L106.645 9.64C104.938 8.72 104.085 7.40667 104.085 5.7C104.085 4.60667 104.485 3.66667 105.285 2.88C106.085 2.09333 107.278 1.7 108.865 1.7C109.932 1.7 110.945 1.91333 111.905 2.34C112.865 2.76667 113.345 3.27333 113.345 3.86C113.345 4.08667 113.272 4.34667 113.125 4.64L112.165 6.48L111.465 6.26V4.58C111.465 3.98 111.198 3.50667 110.665 3.16C110.145 2.81333 109.518 2.64 108.785 2.64C108.065 2.64 107.512 2.85333 107.125 3.28C106.738 3.70667 106.545 4.19333 106.545 4.74C106.545 5.83333 107.038 6.64 108.025 7.16L110.565 8.5C112.498 9.51333 113.465 10.8467 113.465 12.5C113.465 13.7533 112.992 14.7 112.045 15.34C111.112 15.98 109.925 16.3 108.485 16.3C107.405 16.3 106.365 16.0867 105.365 15.66C104.365 15.2333 103.865 14.7267 103.865 14.14C103.865 13.9133 103.938 13.6533 104.085 13.36L105.045 11.52L105.745 11.74V13.42ZM119.591 1.92V7.06C120.058 6.55333 120.558 6.2 121.091 6C121.638 5.8 122.324 5.7 123.151 5.7C123.991 5.7 124.671 5.96667 125.191 6.5C125.724 7.02 125.991 7.73333 125.991 8.64V13.78C125.991 14.14 126.078 14.4267 126.251 14.64C126.424 14.84 126.691 14.94 127.051 14.94C127.411 14.94 127.824 14.7467 128.291 14.36L128.651 14.84C127.584 15.8133 126.518 16.3 125.451 16.3C123.811 16.3 122.991 15.32 122.991 13.36V8.22C122.991 7.80667 122.864 7.48667 122.611 7.26C122.358 7.03333 122.004 6.92 121.551 6.92C121.098 6.92 120.658 7.10667 120.231 7.48C119.804 7.85333 119.591 8.34 119.591 8.94V16H116.591V1.66C115.858 1.84667 115.298 2.17333 114.911 2.64L114.371 2.02C114.758 1.62 115.244 1.3 115.831 1.06C116.431 0.819999 117.018 0.699999 117.591 0.699999C118.178 0.699999 118.658 0.819999 119.031 1.06C119.404 1.28667 119.591 1.57333 119.591 1.92ZM131.018 14.78C130.044 13.7533 129.558 12.4933 129.558 11C129.558 9.50667 130.044 8.25333 131.018 7.24C132.004 6.21333 133.284 5.7 134.858 5.7C136.431 5.7 137.704 6.21333 138.678 7.24C139.664 8.25333 140.158 9.50667 140.158 11C140.158 12.4933 139.664 13.7533 138.678 14.78C137.704 15.7933 136.431 16.3 134.858 16.3C133.284 16.3 132.004 15.7933 131.018 14.78ZM133.218 7.8C132.844 8.62667 132.658 9.69333 132.658 11C132.658 12.3067 132.844 13.38 133.218 14.22C133.591 15.0467 134.144 15.46 134.878 15.46C135.611 15.46 136.164 15.0467 136.538 14.22C136.911 13.38 137.098 12.3067 137.098 11C137.098 9.69333 136.911 8.62667 136.538 7.8C136.164 6.96 135.611 6.54 134.878 6.54C134.144 6.54 133.591 6.96 133.218 7.8ZM143.941 6C145.168 6 146.228 6.34 147.121 7.02C147.828 6.14 148.748 5.7 149.881 5.7C151.414 5.7 152.581 6.2 153.381 7.2C154.181 8.18667 154.581 9.45333 154.581 11C154.581 12.5333 154.148 13.8 153.281 14.8C152.428 15.8 151.228 16.3 149.681 16.3C148.534 16.3 147.621 15.7867 146.941 14.76V21H143.941V6.8C143.341 6.8 142.808 6.9 142.341 7.1L142.061 6.36C142.634 6.12 143.261 6 143.941 6ZM150.921 14.04C151.294 13.2933 151.481 12.28 151.481 11C151.481 9.72 151.294 8.70667 150.921 7.96C150.548 7.21333 149.974 6.84 149.201 6.84C148.441 6.84 147.854 7.22 147.441 7.98C147.041 8.72667 146.841 9.73333 146.841 11C146.841 12.2667 147.041 13.28 147.441 14.04C147.854 14.7867 148.441 15.16 149.201 15.16C149.974 15.16 150.548 14.7867 150.921 14.04Z" fill="white"/>
</svg>
